<svg xmlns="http://www.w3.org/2000/svg" viewBox="-0.000 -0.000 734.176 40.000"><path d="M5.775 3.500 L69.209 3.500 L86.431 36.500 L22.997 36.500 Z" fill="rgba(255,126,39,0.12)"/><path d="M77.105 3.500 L140.539 3.500 L157.761 36.500 L94.327 36.500 Z" fill="rgba(255,126,39,0.12)"/><path d="M148.435 3.500 L211.869 3.500 L229.091 36.500 L165.657 36.500 Z" fill="rgba(255,126,39,0.12)"/><path d="M219.765 3.500 L283.199 3.500 L300.421 36.500 L236.987 36.500 Z" fill="rgba(255,126,39,0.12)"/><path d="M291.095 3.500 L354.529 3.500 L371.751 36.500 L308.317 36.500 Z" fill="rgba(255,126,39,0.12)"/><path d="M362.425 3.500 L425.859 3.500 L443.081 36.500 L379.647 36.500 Z" fill="rgba(255,126,39,0.12)"/><path d="M433.755 3.500 L497.189 3.500 L514.411 36.500 L450.977 36.500 Z" fill="rgba(255,126,39,0.12)"/><path d="M505.085 3.500 L568.519 3.500 L585.741 36.500 L522.307 36.500 Z" fill="rgba(255,126,39,0.12)"/><path d="M576.415 3.500 L639.849 3.500 L657.071 36.500 L593.637 36.500 Z" fill="rgba(255,126,39,0.12)"/><path d="M647.745 3.500 L711.179 3.500 L728.401 36.500 L664.967 36.500 Z" fill="rgba(255,126,39,0.12)"/></svg>